<svg height="512" viewBox="0 0 512 512" width="512" xmlns="http://www.w3.org/2000/svg"><path d="m488 343.35v120.65a24 24 0 0 1 -24 24h-272a24 24 0 0 1 -24-24v-120.65a47.985 47.985 0 0 1 38.58-47.06c35.08-7.02 81.42-16.29 81.42-16.29v-72h80v72l45.15 9.03 36.26 7.25a48 48 0 0 1 38.59 47.07z" fill="#3d4d63"/><path d="m488 343.35v120.65a24 24 0 0 1 -24 24h-271.36c62.59-25.65 171.56-77.88 220.51-198.97l36.26 7.25a48 48 0 0 1 38.59 47.07z" fill="#374559"/><path d="m400 344h16v144h-16z" fill="#2a3845"/><path d="m232 344h16v144h-16z" fill="#2a3845"/><path d="m408 136h-8v48h8a24 24 0 0 0 0-48z" fill="#feb784"/><path d="m248.4 136h-.4a24 24 0 0 0 0 48h8v-48z" fill="#feb784"/><rect fill="#fec9a3" height="200" rx="72" width="144" x="256" y="56"/><path d="m400 128v56a72.029 72.029 0 0 1 -42.66 65.77 71.572 71.572 0 0 0 .66-9.77v-152a71.663 71.663 0 0 0 -5.54-27.73 72.054 72.054 0 0 1 47.54 67.73z" fill="#feb784"/><path d="m256 136v-40c0-26.51 17.909-40 40-40l-1.408 5.068c-7.842 28.232-21.055 53.888-38.592 74.932z" fill="#95573a"/><path d="m400 136v-48c0-26.51-17.909-32-40-32l1.408 5.068c7.842 28.232 21.055 53.888 38.592 74.932z" fill="#95573a"/><path d="m400 88h-121.3a30.707 30.707 0 0 1 -30.7-30.7v-2.6a30.7 30.7 0 0 1 47.73-25.54 64.552 64.552 0 0 0 17.11 8.07 64.457 64.457 0 0 0 18.71 2.77h20.45a48 48 0 0 1 48 48z" fill="#7a432a"/><path d="m400 136v56a178.2 178.2 0 0 1 -6.32 47.15l-11.25 41.27a32 32 0 0 1 -30.87 23.58h-47.12a31.676 31.676 0 0 1 -6.56-.68 32 32 0 0 1 -24.31-22.9l-11.25-41.26a178.9 178.9 0 0 1 -6.32-47.16v-56l13.03 41.15a19.031 19.031 0 0 0 4.62 7.79 20.1 20.1 0 0 0 25.29 2.43 20.073 20.073 0 0 1 11.14-3.37h35.84a20.089 20.089 0 0 1 11.14 3.37s2.77 1.78 2.94 1.87c10.98 5.98 24.81-.22 28.28-12.34z" fill="#7a432a"/><path d="m400 136v56a178.2 178.2 0 0 1 -6.32 47.15l-11.25 41.27a32 32 0 0 1 -30.87 23.58h-47.12a31.676 31.676 0 0 1 -6.56-.68 72 72 0 0 0 62.12-71.32v-42.76c10.98 5.98 24.81-.22 28.28-12.34z" fill="#743b20"/><circle cx="292" cy="148" fill="#7a432a" r="12"/><circle cx="364" cy="148" fill="#7a432a" r="12"/><path d="m335.586 138.531-15.172-5.062-16 48a8 8 0 0 0 7.586 10.531h32v-16h-20.9z" fill="#f7a468"/><path d="m352 184h-48a48 48 0 0 0 -48 48h24a47.633 47.633 0 0 0 29.291-10.029 26.636 26.636 0 0 1 16.243-5.971h4.932a26.634 26.634 0 0 1 16.243 5.971 47.633 47.633 0 0 0 29.291 10.029h24a48 48 0 0 0 -48-48z" fill="#95573a"/><path d="m400 88h-42a71.7 71.7 0 0 0 -18.34-48h12.34a48 48 0 0 1 48 48z" fill="#743b20"/><path d="m392 392-224 8v64a24 24 0 0 0 24 24h48l152-53.455 56-10.545 40 16v-64l-48-8z" fill="#feb784"/><path d="m24.342 426.556c-3.45 30.73 19.594 58.335 51.322 61.214 31.22 2.834 59.85-20.889 62.044-51.348a54.935 54.935 0 0 0 -24.927-49.757l19.883-48.365a77.7 77.7 0 0 1 36.914-39.666l39.81-125.825a242.279 242.279 0 0 0 -.801-148.809l-125.932 353.226c-29.42-.899-55.061 20.356-58.313 49.33zm32.333 3.444c1.464-13.042 13.508-22.458 26.9-21.033s23.063 13.154 21.6 26.2-13.508 22.458-26.9 21.033-23.064-13.16-21.6-26.2z" fill="#c7c7c5"/><path d="m279.66 426.56c-3.25-28.98-28.9-50.23-58.32-49.33l-30.69-86.1-95.24-267.13a242.311 242.311 0 0 0 -.8 148.81l4.8 15.18 35.01 110.65a78.481 78.481 0 0 1 22.12 16.6 76.779 76.779 0 0 1 14.8 23.06l19.88 48.36a54.95 54.95 0 0 0 -24.93 49.76c2.2 30.46 30.83 54.18 62.05 51.35 31.72-2.88 54.77-30.48 51.32-61.21zm-53.93 29.63c-13.4 1.43-25.44-7.99-26.9-21.03s8.2-24.77 21.59-26.19 25.44 7.99 26.91 21.03-8.21 24.77-21.6 26.19z" fill="#e0e0de"/><path d="m279.66 426.56c-3.25-28.98-28.9-50.23-58.32-49.33l-30.69-86.1c-33.74-29.3-65.17-63.47-91.24-103.14l35.01 110.65a78.481 78.481 0 0 1 22.12 16.6 76.779 76.779 0 0 1 14.8 23.06l19.88 48.36a54.95 54.95 0 0 0 -24.93 49.76c2.2 30.46 30.83 54.18 62.05 51.35 31.72-2.88 54.77-30.48 51.32-61.21zm-53.93 29.63c-13.4 1.43-25.44-7.99-26.9-21.03s8.2-24.77 21.59-26.19 25.44 7.99 26.91 21.03-8.21 24.77-21.6 26.19z" fill="#d6d6d4"/><path d="m144 256h16v16h-16z" fill="#ebebe9"/><path d="m488 408v56a24.006 24.006 0 0 1 -24 24h-48l-56.35-19.82-28.35-9.96-67.3-23.67-56-10.55-40 16v-64l48-8 48 24 79.9 5.71 29.62 2.11z" fill="#fec9a3"/><path d="m439.32 432.69a21.861 21.861 0 0 0 -36.63.31l-13.09-2.62 2.52-12.6-15.69-3.14-2.52 12.61-30.72-6.15a26.378 26.378 0 0 1 28.61-13.41l1.72-7.87-29.62-2.11c-.49.28-.92.54-1.07.64a42.4 42.4 0 0 0 -15.88 19.5l-13.38-2.67-3.14 15.69 13.38 2.67a42.419 42.419 0 0 0 7.15 24.12c.04.06.17.27.34.56l28.35 9.96 1.65-8a26.713 26.713 0 0 1 -21.24-23.39l30.71 6.15-2.52 12.6 15.69 3.14 2.52-12.61 13.09 2.62a21.808 21.808 0 0 0 17.25 17.63 22.1 22.1 0 0 0 4.34.43 21.911 21.911 0 0 0 18.18-34.06zm-24.14 12.143a5.963 5.963 0 1 1 5.963 5.963 5.963 5.963 0 0 1 -5.963-5.963z" fill="#95573a"/></svg>